<?xml version="1.0" encoding="utf-8"?>
<!-- Generator: Adobe Illustrator 27.0.1, SVG Export Plug-In . SVG Version: 6.00 Build 0)  -->
<svg version="1.1" id="Layer_1" xmlns="http://www.w3.org/2000/svg" xmlns:xlink="http://www.w3.org/1999/xlink" x="0px" y="0px"
	 viewBox="0 0 700 700" style="enable-background:new 0 0 700 700;" xml:space="preserve">
<g>
	<path d="M89,580.6h522V698H89V580.6z"/>
	<path d="M176,495.4v-98.7c-7.8,5.7-17.3,9.3-27.8,9.3c-16,0-30.1-8.1-38.5-20.4v109.8L176,495.4z"/>
	<path d="M551.8,406c-10.4,0-20-3.6-27.8-9.3v98.7h66.3V385.7C581.9,397.9,567.7,406,551.8,406L551.8,406z"/>
	<path d="M79.3,508.4h541.4c9.7,0,17.5,9.7,17.5,17.5V550c0,9.7-7.8,17.5-17.5,17.5H79.3c-9.7,0-17.5-9.7-17.5-17.5v-24.1
		C61.9,516.3,69.7,508.4,79.3,508.4L79.3,508.4z"/>
	<path d="M424.4,189.5c0.7,4.8-1.4,9.5-5.2,12.4c-0.9,0.7-1.9,1-2.9,1.5l162.4,109h85L417.2,136.9L424.4,189.5L424.4,189.5z"/>
	<path d="M107.9,312.2h13.4l162.4-109c-1-0.4-2-0.8-2.9-1.5c-3.9-2.8-5.9-7.6-5.2-12.4l7.2-52.6L36.4,312.2L107.9,312.2z"/>
	<path d="M188.6,312.2h366.6L357.7,179.7L350,176l-7.7,3.7L144.8,312.2H188.6z"/>
	<path d="M449.4,74.3l-67.2-12.1L350,2l-32.3,60.2l-67.2,12.1l47.2,49.2l-9.3,67.7l61.5-29.8l61.5,29.8l-9.3-67.7L449.4,74.3z"/>
	<path d="M101.3,359.1v-33.8H33.7v33.8c0,18.6,15.1,33.8,33.8,33.8C86.2,393,101.4,377.8,101.3,359.1L101.3,359.1z"/>
	<path d="M114.4,359.1c0,18.6,15.1,33.8,33.8,33.8c18.7,0,33.8-15.1,33.8-33.8v-33.8h-67.7L114.4,359.1L114.4,359.1z"/>
	<path d="M195.1,359.1c0,18.6,15.1,33.8,33.8,33.8c18.7,0,33.8-15.1,33.8-33.8v-33.8h-67.7L195.1,359.1L195.1,359.1z"/>
	<path d="M275.8,359.1c0,18.6,15.1,33.8,33.8,33.8c18.7,0,33.8-15.1,33.8-33.8v-33.8h-67.7L275.8,359.1L275.8,359.1z"/>
	<path d="M356.5,359.1c0,18.6,15.1,33.8,33.8,33.8c18.6,0,33.8-15.1,33.8-33.8v-33.8h-67.7L356.5,359.1L356.5,359.1z"/>
	<path d="M437.3,359.1c0,18.6,15.1,33.8,33.8,33.8c18.7,0,33.8-15.1,33.8-33.8v-33.8h-67.7L437.3,359.1L437.3,359.1z"/>
	<path d="M517.9,325.3v33.8c0,18.6,15.1,33.8,33.8,33.8c18.7,0,33.8-15.1,33.8-33.8v-33.8H517.9z"/>
	<path d="M632.5,393c18.6,0,33.8-15.1,33.8-33.8v-33.8h-67.7v33.8C598.7,377.7,613.8,393,632.5,393L632.5,393z"/>
</g>
</svg>
